<?xml version="1.0" standalone="no"?>
<!DOCTYPE svg PUBLIC "-//W3C//DTD SVG 20010904//EN"
 "http://www.w3.org/TR/2001/REC-SVG-20010904/DTD/svg10.dtd">
<svg version="1.0" xmlns="http://www.w3.org/2000/svg"
 width="1280.000000pt" height="914.000000pt" viewBox="0 0 1280.000000 914.000000"
 preserveAspectRatio="xMidYMid meet">

<g transform="translate(0.000000,914.000000) scale(0.100000,-0.100000)"
fill="#000000" stroke="none">
<path d="M9646 7243 c-10 -211 -23 -335 -34 -342 -8 -5 0 -253 28 -876 22
-479 42 -883 45 -900 3 -16 23 -156 44 -310 26 -187 47 -303 64 -350 l24 -70
17 55 c24 80 32 147 52 415 9 132 20 243 23 247 3 4 3 69 0 145 -4 76 -21 476
-39 888 -27 615 -36 752 -48 762 -9 7 -22 59 -34 130 -10 64 -24 120 -30 125
-7 4 -14 38 -16 80 -5 115 -6 118 -51 118 l-39 0 -6 -117z"/>
<path d="M9047 7203 c-12 -250 -20 -338 -30 -344 -6 -5 -6 -90 2 -250 6 -134
16 -341 22 -459 52 -1124 47 -1067 115 -1540 13 -96 52 -240 64 -240 18 0 44
170 66 425 28 315 28 333 -1 925 -19 405 -35 746 -43 963 -5 110 -12 181 -18
185 -6 4 -19 52 -28 107 -23 141 -27 156 -35 150 -10 -5 -21 78 -21 153 l0 52
-44 0 -43 0 -6 -127z"/>
<path d="M9358 7239 c2 -49 -1 -96 -6 -102 -5 -7 -13 -70 -17 -141 l-7 -129
88 8 c49 4 91 9 93 11 8 8 -32 230 -44 239 -8 6 -16 50 -20 108 l-7 97 -42 0
-41 0 3 -91z"/>
<path d="M8760 7206 c0 -51 -4 -106 -9 -122 -5 -16 -12 -77 -15 -136 l-5 -108
63 0 c35 0 77 3 93 6 l29 6 -20 124 c-14 85 -24 124 -33 124 -9 0 -13 16 -13
54 0 29 -3 74 -6 100 -7 46 -7 46 -45 46 l-39 0 0 -94z"/>
<path d="M9412 5071 c-21 -13 49 -534 85 -632 30 -79 25 -81 57 31 8 30 22
154 31 275 9 121 19 246 22 278 l6 57 -94 0 c-52 0 -100 -4 -107 -9z"/>
<path d="M8861 5043 l-63 -4 6 -32 c3 -18 19 -142 37 -277 22 -173 38 -267 56
-318 14 -40 28 -71 30 -69 2 3 12 35 23 73 17 60 60 495 60 602 0 36 13 34
-149 25z"/>
<path d="M10860 4534 c-361 -47 -659 -91 -678 -99 -19 -9 -39 -29 -48 -48 -18
-37 -37 126 201 -1712 130 -999 126 -971 146 -1004 11 -19 31 -34 51 -39 37
-9 21 -11 812 92 612 80 609 79 631 140 10 29 8 50 -75 686 -27 206 -79 605
-115 885 -126 976 -144 1104 -154 1122 -17 34 -49 55 -88 58 -21 2 -328 -34
-683 -81z m710 -148 c0 -8 13 -115 30 -238 16 -122 52 -401 80 -618 28 -217
75 -582 105 -810 30 -228 55 -433 57 -455 l3 -40 -665 -86 c-366 -48 -666 -85
-668 -84 -4 3 -282 2129 -282 2155 0 12 118 30 658 101 361 48 663 87 670 88
6 1 12 -5 12 -13z m-288 -2394 c35 -32 43 -71 24 -115 -44 -107 -195 -76 -196
40 0 97 101 141 172 75z"/>
<path d="M2180 4333 c-334 -56 -618 -288 -740 -605 -65 -168 -77 -392 -30
-563 12 -44 23 -89 24 -99 1 -15 -34 -41 -144 -107 -79 -48 -146 -91 -147 -96
-3 -8 104 -193 120 -210 3 -2 71 36 153 86 l148 90 65 -71 c86 -93 176 -160
286 -214 148 -72 222 -88 415 -88 151 0 172 2 255 28 334 101 575 350 661 681
37 142 37 317 0 460 -91 356 -372 626 -728 699 -72 15 -272 20 -338 9z"/>
<path d="M7336 2353 c116 -135 149 -168 194 -194 42 -23 791 -443 1324 -741
l229 -128 47 40 c43 36 48 46 52 88 3 26 0 52 -6 58 -6 6 -164 98 -351 204
-187 106 -537 305 -779 443 l-439 251 -151 23 c-83 12 -157 23 -165 23 -7 0
13 -30 45 -67z"/>
<path d="M9452 406 c-419 -167 -765 -305 -768 -308 -3 -3 5 -26 18 -52 l22
-46 918 0 917 0 -43 93 c-177 381 -290 617 -295 617 -3 -1 -349 -137 -769
-304z"/>
</g>
</svg>
